<svg width="44" height="36" viewBox="0 0 44 36" fill="none" xmlns="http://www.w3.org/2000/svg">
<g clip-path="url(#clip0)">
<path d="M43.1492 20.45C42.9951 20.3266 42.8218 20.2433 42.6332 20.2076C41.5194 21.318 40.1602 22.4873 38.9533 23.2733C38.3962 23.6434 37.6959 23.8284 37.2322 23.8284C36.1645 23.8284 35.7008 22.8106 35.5614 21.1927C35.3758 19.0195 35.2505 16.4163 35.2505 12.3932C35.2505 8.26695 34.3141 5.46186 31.8193 5.24175C31.7118 5.23168 31.604 5.22641 31.496 5.22598C29.9646 5.22598 29.2222 6.01181 28.2478 8.00055C27.4126 9.71106 26.1131 12.2081 23.7005 16.9246C21.6121 20.9941 19.292 24.6008 17.2962 27.0979C16.7405 27.7901 16.3013 28.2656 15.8885 28.5361C15.6125 28.7177 15.3479 28.8084 15.069 28.8084C14.2815 28.8084 13.7063 28.1437 13.5142 26.5961C13.4686 26.2282 13.4446 25.8108 13.4446 25.3405C13.4446 22.1501 14.6514 16.9709 16.7394 9.34112C18.2705 3.79215 17.6211 0.00100708 14.2796 0.00100708H14.2421L14.2397 0.00152137C13.4831 0.0102642 12.8559 0.284378 12.2516 0.759921C11.6569 1.22861 11.0612 2.24055 10.5054 3.60084C9.87885 5.13341 6.06885 12.7757 0.00490643 16.7127C-0.0665793 18.2095 0.780792 19.7059 2.49782 19.8679C4.06074 20.0161 5.17039 19.3573 6.59942 18.3975C6.40784 19.2519 6.21909 20.1068 6.03319 20.9624C5.92416 21.462 5.85508 21.7836 5.83468 21.8725C5.63616 22.7832 5.49439 23.648 5.40251 24.469C4.54742 32.1118 8.08982 35.8832 12.2382 35.8832C12.9317 35.8832 13.6186 35.8006 14.3009 35.6273C18.8715 34.4684 23.2717 29.2255 28.4802 17.1559C28.4012 18.469 28.3928 19.6952 28.4497 20.833C28.7929 27.7501 31.5289 29.8256 35.3945 29.8256C38.3178 29.8256 41.0555 28.3001 42.4475 26.4039C43.4689 25.0628 43.8863 23.5831 43.8863 22.4271C43.8863 21.5299 43.6018 20.8136 43.1492 20.45Z" fill="#EA5252"/>
</g>
<defs>
<clipPath id="clip0">
<rect width="43.8857" height="36" rx="15" fill="white"/>
</clipPath>
</defs>
</svg>
