<svg width="44" height="36" viewBox="0 0 44 36" fill="none" xmlns="http://www.w3.org/2000/svg">
<path d="M41.1613 0.116156L28.3869 5.57423V22.8774C28.3869 23.5742 28.3869 24.387 28.1031 25.0838C27.9611 25.7806 27.6772 26.4774 27.3933 27.0581C27.2515 27.1742 27.2515 27.4064 27.1095 27.5226C26.6838 27.5226 23.5611 26.7097 22.1418 25.8968C21.5741 25.5483 21.0062 25.2 20.4385 24.7355C19.8708 24.271 19.4451 23.8064 19.0192 23.3419C18.5934 22.8774 18.1675 22.2968 17.8838 21.7162C17.5998 21.1354 17.3159 20.5549 17.1739 19.8581C17.0321 19.2773 17.0321 18.5806 17.0321 18V1.39359L14.1934 0L0 6.85167V22.7613C0 30.0774 7.23869 36 16.0387 36C19.0193 36 21.7161 35.4194 24.129 34.2581L36.0516 28.6838C40.7354 26.7096 44 22.6451 44 18.1162V1.50975L41.1613 0.116016V0.116156ZM25.4064 30.4256C24.129 31.4709 23.1354 32.0515 21.7162 32.632C20.8646 32.8643 19.871 33.2128 19.0195 33.445C18.1677 33.5611 17.3162 33.6773 16.4646 33.6773C15.613 33.6773 14.1936 33.5611 13.342 33.445C12.4903 33.3288 11.6387 33.0967 10.929 32.8643C10.2193 32.6322 9.3677 32.2837 8.65803 31.8192C6.81295 30.7741 5.96131 29.845 5.10967 28.916C4.68394 28.3352 4.25803 27.7547 3.8323 27.0579C3.54836 26.3611 3.26459 25.7805 3.12245 25.0837C2.83886 24.2709 2.83886 23.4579 2.83886 22.7611V8.24512L14.1934 2.78719V18C14.1934 23.8064 19.4449 28.5677 26.1159 29.729C25.8321 29.9613 25.6902 30.1936 25.4062 30.4258L25.4064 30.4256ZM41.0195 19.9741C40.8774 20.5547 40.5936 21.1354 40.3097 21.716C40.0257 22.2967 39.458 23.1096 38.8903 23.6903C38.0387 24.5031 37.187 25.0838 35.058 26.1288C33.213 26.9418 31.6515 27.1741 30.658 27.4063C31.3679 26.0127 31.3679 24.5031 31.3679 22.8773L31.2257 6.96755L41.1613 2.67089V18.116C41.1613 18.6967 41.1613 19.3935 41.0193 19.9741H41.0195Z" fill="#02B3E4"/>
</svg>
