<svg width="32" height="32" viewBox="0 0 32 32" fill="none" xmlns="http://www.w3.org/2000/svg">
<path d="M16.0001 0.761841C7.58406 0.761841 0.761963 7.58394 0.761963 15.9999C0.761963 24.4159 7.58406 31.238 16.0001 31.238C24.4161 31.238 31.2382 24.4159 31.2382 15.9999C31.2382 7.58394 24.4161 0.761841 16.0001 0.761841ZM16.0001 2.96984C19.3197 2.96984 22.3498 4.21175 24.6507 6.25517C22.9601 8.48527 20.3917 9.97022 17.818 10.9752C16.361 8.32172 14.7282 5.76872 12.9303 3.33327C13.9358 3.09091 14.9665 2.96891 16.0008 2.96984H16.0001ZM10.4564 4.20413C12.1555 6.74584 13.8012 9.10241 15.3044 11.7698C11.5025 12.755 7.20615 13.3462 3.23739 13.3561C4.07396 9.2967 6.80082 5.92603 10.4564 4.20489V4.20413ZM26.0961 7.76222C27.9789 10.0631 29.0147 12.9408 29.0302 15.9138C26.0161 15.3196 23.0187 15.1641 19.9665 15.4719C19.6237 14.6163 19.2077 13.8034 18.8092 12.9272C21.4401 11.8658 24.253 10.0495 26.0961 7.76146V7.76222ZM16.3627 13.7858C16.6888 14.4792 17.0667 15.2152 17.4218 15.9672C13.178 17.8384 8.66368 20.339 6.32082 24.723C4.07168 22.234 2.87305 18.9713 2.97606 15.6182C7.52082 15.5969 11.9818 15.0285 16.3627 13.7858ZM23.2488 17.3386C25.1451 17.339 27.0334 17.5823 28.8679 18.0624C28.585 19.8272 27.9421 21.5148 26.9791 23.0205C26.0161 24.5261 24.7536 25.8176 23.2702 26.8144C22.5707 23.6335 21.9041 20.5896 20.7254 17.5207C21.5608 17.399 22.4039 17.3379 23.2481 17.3378L23.2488 17.3386ZM28.9357 17.5748C28.9265 17.6495 28.9182 17.7226 28.9075 17.7957C28.9182 17.7218 28.9273 17.6487 28.9357 17.5748ZM18.3147 18.1157C19.5155 21.219 20.458 24.6552 21.0903 27.9992C19.4806 28.6822 17.7495 29.0331 16.0008 29.0308C13.1039 29.0349 10.289 28.0694 8.00463 26.2879C10.3642 22.4601 14.0191 19.5634 18.314 18.1165L18.3147 18.1157Z" fill="black"/>
</svg>
